<svg width="53" height="27" viewBox="0 0 53 27" fill="none" xmlns="http://www.w3.org/2000/svg">
<path d="M52.4699 12.3021L43.3125 1.0736C43.0183 0.714284 42.6494 0.533695 42.2798 0.532154C41.9101 0.530613 41.5397 0.70812 41.2425 1.06497C40.6481 1.77868 40.6435 2.8977 41.2319 3.61633L47.8884 11.7906L26.3015 11.7007C25.4883 11.6973 24.8196 12.5002 24.8155 13.4849C24.8114 14.4697 25.4734 15.2781 26.2866 15.2815L47.8735 15.3715L41.149 23.49C40.5546 24.2037 40.55 25.3228 41.1384 26.0414C41.7268 26.76 42.6509 26.7639 43.2454 26.0502L52.496 14.8984C53.0537 14.1398 53.0585 12.976 52.4699 12.3021Z" fill="#FF5722"/>
<rect width="50" height="4.00159" rx="2.00079" transform="matrix(0.999991 0.00416877 0.00416877 -0.999991 0.219543 15.363)" fill="#FF5722"/>
</svg>